# xmcd CD database file
#
# Track frame offsets:
#	150
#	28332
#	54815
#	77275
#	102255
#	127095
#	155745
#	199358
#	235511
#	254467
#	277061
#
# Disc length: 4500 seconds
#
# Revision: 0
# Processed by: cddbd v1.5.2PL0 Copyright (c) Steve Scherf et al.
# Submitted via: CDex 1.51
#
DISCID=9511920b
DTITLE=Oscar Peterson - Live At The Stratford Shakespearean Festival
DYEAR=1956
DGENRE=Jazz
TTITLE0=Falling In Love With Love
TTITLE1=How About You?
TTITLE2=Flamingo
TTITLE3=Swinging On A Star
TTITLE4=Noreen's Nocturne
TTITLE5=Gypsy In My Soul
TTITLE6=How High The Moon
TTITLE7=Love You Madly
TTITLE8=52nd Street Theme
TTITLE9=Nuages
TTITLE10=Daisy's Dream
EXTD=YEAR: 1956
EXTT0=
EXTT1=
EXTT2=
EXTT3=
EXTT4=
EXTT5=
EXTT6=
EXTT7=
EXTT8=
EXTT9=
EXTT10=
PLAYORDER=
